<?xml version="1.0" encoding="UTF-8"?>
<svg fill="#006400" width="100pt" height="100pt" version="1.1" viewBox="0 0 100 100" xmlns="http://www.w3.org/2000/svg">
 <g>
  <path d="m61.719 100c-0.41406 0-0.8125-0.16406-1.1055-0.45703s-0.45703-0.69141-0.45703-1.1055v-96.875c0-0.86328 0.69922-1.5625 1.5625-1.5625s1.5625 0.69922 1.5625 1.5625v96.875c0 0.41406-0.16406 0.8125-0.45703 1.1055s-0.69141 0.45703-1.1055 0.45703z"/>
  <path d="m67.969 100c-0.41406 0-0.8125-0.16406-1.1055-0.45703s-0.45703-0.69141-0.45703-1.1055v-96.875c0-0.86328 0.69922-1.5625 1.5625-1.5625s1.5625 0.69922 1.5625 1.5625v96.875c0 0.41406-0.16406 0.8125-0.45703 1.1055s-0.69141 0.45703-1.1055 0.45703z"/>
  <path d="m97.656 100h-35.938c-0.86328 0-1.5625-0.69922-1.5625-1.5625s0.69922-1.5625 1.5625-1.5625h35.938c0.86328 0 1.5625 0.69922 1.5625 1.5625s-0.69922 1.5625-1.5625 1.5625z"/>
  <path d="m49.219 32.812h-46.875c-0.86328 0-1.5625-0.69922-1.5625-1.5625s0.69922-1.5625 1.5625-1.5625h46.875c0.86328 0 1.5625 0.69922 1.5625 1.5625s-0.69922 1.5625-1.5625 1.5625z"/>
  <path d="m49.219 32.812c-0.86328 0-1.5625-0.69922-1.5625-1.5625s0.69922-1.5625 1.5625-1.5625c2.5859-0.003906 4.6836-2.1016 4.6875-4.6875 0-0.86328 0.69922-1.5625 1.5625-1.5625s1.5625 0.69922 1.5625 1.5625c-0.003906 4.3125-3.5 7.8086-7.8125 7.8125z"/>
  <path d="m55.469 26.562c-0.41406 0-0.8125-0.16406-1.1055-0.45703s-0.45703-0.69141-0.45703-1.1055c-0.003906-2.5859-2.1016-4.6836-4.6875-4.6875-0.86328 0-1.5625-0.69922-1.5625-1.5625s0.69922-1.5625 1.5625-1.5625c4.3125 0.003906 7.8086 3.5 7.8125 7.8125 0 0.41406-0.16406 0.8125-0.45703 1.1055s-0.69141 0.45703-1.1055 0.45703z"/>
  <path d="m41.406 42.188c-0.86328 0-1.5625-0.69922-1.5625-1.5625s0.69922-1.5625 1.5625-1.5625c1.7266 0 3.125-1.3984 3.125-3.125s-1.3984-3.125-3.125-3.125c-0.86328 0-1.5625-0.69922-1.5625-1.5625s0.69922-1.5625 1.5625-1.5625c3.4531 0 6.25 2.7969 6.25 6.25s-2.7969 6.25-6.25 6.25z"/>
  <path d="m32.031 25c-0.86328 0-1.5625-0.69922-1.5625-1.5625s0.69922-1.5625 1.5625-1.5625c1.7266 0 3.125-1.3984 3.125-3.125s-1.3984-3.125-3.125-3.125c-0.86328 0-1.5625-0.69922-1.5625-1.5625s0.69922-1.5625 1.5625-1.5625c3.4531 0 6.25 2.7969 6.25 6.25s-2.7969 6.25-6.25 6.25z"/>
  <path d="m47.656 54.688c-0.86328 0-1.5625-0.69922-1.5625-1.5625s0.69922-1.5625 1.5625-1.5625 1.5625-0.69922 1.5625-1.5625-0.69922-1.5625-1.5625-1.5625-1.5625-0.69922-1.5625-1.5625 0.69922-1.5625 1.5625-1.5625c2.5898 0 4.6875 2.0977 4.6875 4.6875 0 2.5859-2.0977 4.6875-4.6875 4.6875z"/>
  <path d="m32.031 25h-21.875c-0.86328 0-1.5625-0.69922-1.5625-1.5625s0.69922-1.5625 1.5625-1.5625h21.875c0.86328 0 1.5625 0.69922 1.5625 1.5625s-0.69922 1.5625-1.5625 1.5625z"/>
  <path d="m47.656 48.438h-30.988c-0.86328 0-1.5625-0.69922-1.5625-1.5625s0.69922-1.5625 1.5625-1.5625h30.988c0.86328 0 1.5625 0.69922 1.5625 1.5625s-0.69922 1.5625-1.5625 1.5625z"/>
  <path d="m42.969 26.562c-0.41406 0-0.8125-0.16406-1.1055-0.45703s-0.45703-0.69141-0.45703-1.1055c0.003906-4.3125 3.5-7.8086 7.8125-7.8125 0.86328 0 1.5625 0.69922 1.5625 1.5625s-0.69922 1.5625-1.5625 1.5625c-2.5859 0.003906-4.6836 2.1016-4.6875 4.6875 0 0.41406-0.16406 0.8125-0.45703 1.1055s-0.69141 0.45703-1.1055 0.45703z"/>
  <path d="m30.469 40.625h-20.312c-0.86328 0-1.5625-0.69922-1.5625-1.5625s0.69922-1.5625 1.5625-1.5625h20.312c0.86328 0 1.5625 0.69922 1.5625 1.5625s-0.69922 1.5625-1.5625 1.5625z"/>
  <path d="m33.594 95.312c-4.9727 0-9.7422-1.9766-13.258-5.4922-3.5156-3.5156-5.4922-8.2852-5.4922-13.258s1.9766-9.7422 5.4922-13.258c3.5156-3.5156 8.2852-5.4922 13.258-5.4922s9.7422 1.9766 13.258 5.4922c3.5156 3.5156 5.4922 8.2852 5.4922 13.258-0.003906 4.9727-1.9844 9.7383-5.4961 13.254-3.5156 3.5117-8.2812 5.4922-13.254 5.4961zm0-34.375c-4.1445 0-8.1172 1.6445-11.047 4.5781-2.9336 2.9297-4.5781 6.9023-4.5781 11.047s1.6445 8.1172 4.5781 11.047c2.9297 2.9336 6.9023 4.5781 11.047 4.5781s8.1172-1.6445 11.047-4.5781c2.9336-2.9297 4.5781-6.9023 4.5781-11.047-0.003906-4.1406-1.6523-8.1133-4.582-11.043-2.9297-2.9297-6.9023-4.5781-11.043-4.582z"/>
  <path d="m30.469 84.375c-0.41406 0-0.8125-0.16406-1.1055-0.45703l-4.6875-4.6875c-0.60156-0.61328-0.59375-1.5938 0.011719-2.1992s1.5859-0.61328 2.1992-0.011719l4.6875 4.6875c0.44531 0.44922 0.57812 1.1211 0.33594 1.7031-0.23828 0.58594-0.80859 0.96484-1.4414 0.96484z"/>
  <path d="m30.59 84.254c-0.63281 0-1.1992-0.38281-1.4414-0.96484-0.24219-0.58594-0.10938-1.2578 0.33594-1.7031l10.816-10.816c0.61328-0.60156 1.5938-0.59375 2.1992 0.011719s0.61328 1.5859 0.011719 2.1992l-10.816 10.816c-0.29297 0.29297-0.69141 0.45703-1.1055 0.45703z"/>
 </g>
</svg>
