<svg width="96" height="96" xmlns="http://www.w3.org/2000/svg" xmlns:xlink="http://www.w3.org/1999/xlink" xml:space="preserve" overflow="hidden"><defs><clipPath id="clip0"><rect x="0" y="0" width="96" height="96"/></clipPath></defs><g clip-path="url(#clip0)"><path d="M90.1 10.14C91.2295 8.92783 91.1625 7.02951 89.9503 5.9 88.7982 4.82644 87.0121 4.82644 85.86 5.9L55 36.76 55 24.2C55 22.5431 53.6569 21.2 52 21.2 50.3431 21.2 49 22.5431 49 24.2L49 44C49 45.6569 50.3431 47 52 47L71.8 47C72.5954 46.9993 73.3579 46.6828 73.92 46.12 74.5399 45.579 74.9269 44.8195 75 44 74.909 42.3043 73.498 40.9815 71.8 41L59.24 41Z" fill="#548235"/><path d="M5.88 85.88C4.75049 87.0922 4.81749 88.9905 6.02967 90.12 7.18179 91.1936 8.96788 91.1936 10.12 90.12L41 59.26 41 71.82C41 73.4769 42.3431 74.82 44 74.82 45.6569 74.82 47 73.4769 47 71.82L47 52C47 50.3431 45.6569 49 44 49L24.18 49C23.3817 49.006 22.6188 49.3299 22.06 49.9 20.825 50.9023 20.6363 52.7161 21.6387 53.9511 22.2534 54.7086 23.2099 55.1034 24.18 55L36.74 55Z" fill="#548235"/></g></svg>