<svg width="96" height="96" xmlns="http://www.w3.org/2000/svg" xmlns:xlink="http://www.w3.org/1999/xlink" xml:space="preserve" overflow="hidden"><defs><clipPath id="clip0"><rect x="0" y="0" width="96" height="96"/></clipPath></defs><g clip-path="url(#clip0)"><path d="M78.4 11 78.4 11C77.9 16.1 79.5 21.2 83 24.9L83 24.9C77.9 25.2 73.2 27.7 70.1 31.8L70.1 31.8C70.6 26.7 69 21.6 65.5 17.9L65.5 17.9C70.6 17.5 75.3 15 78.4 11Z" stroke="#538134" fill="#548235"/><path d="M47.5 13.8C47 20.3 49 26.3 53 30.4L53 30.4C47.3 30.6 41.6 33.6 37.5 38.6L37.5 38.6C38 32.2 36 26.1 32 22L32 22C37.7 21.8 43.4 18.8 47.5 13.8L47.5 13.8Z" stroke="#538134" fill="#548235"/><path d="M77.6 39.2 77.6 39.2C77.2 42.8 78.4 46.3 80.8 49L80.8 49C77.2 49.2 73.9 51 71.7 53.8L71.7 53.8C72.1 50.2 70.9 46.7 68.5 44L68.5 44C72.1 43.8 75.4 42 77.6 39.2Z" stroke="#538134" fill="#548235"/><path d="M12.6548 79.8914 48.5048 44.0414 54.1616 49.6982 18.3116 85.5482Z" stroke="#538134" fill="#548235"/><path d="M51.3246 41.3125 60.1634 32.4738 65.8202 38.1306 56.9814 46.9693Z" stroke="#538134" fill="#548235"/></g></svg>