<?xml version="1.0" encoding="utf-8"?>
<!-- Generator: Adobe Illustrator 27.8.1, SVG Export Plug-In . SVG Version: 6.00 Build 0)  -->
<svg version="1.1" id="Layer_1" xmlns="http://www.w3.org/2000/svg" xmlns:xlink="http://www.w3.org/1999/xlink" x="0px" y="0px"
	 viewBox="0 0 100 100" style="enable-background:new 0 0 100 100;" xml:space="preserve">
<style type="text/css">
	.st0{fill:#E22024;}
</style>
<g>
	<path id="Path_14_00000074410957060578098600000006937575200960928415_" class="st0" d="M49.7,9.3c0-4.1,3.3-7.5,7.5-7.5
		c4.1,0,7.5,3.3,7.5,7.5s-3.3,7.5-7.5,7.5c-4.1,0-7.4-3.2-7.5-7.3C49.7,9.4,49.7,9.3,49.7,9.3z"/>
	<path id="Path_15_00000176753418397413996660000001412759749545208709_" class="st0" d="M25.9,29.8c0,0,8.9-5,12.8-7.1
		s11.8-7.4,18.8-1.2c3.2,2.8,6.8,17.2,6.8,17.2l14.8,9.1l-2.4,3.4l-16.1-5.8l-4.5-5.8L51.4,50L61,66.8l7.6,28.3l-7.8,2.6l-8.8-26.4
		l-6.5-6.4L31.1,98.6l-6.9-3.2l11.5-41c-1-2.4-1.5-5-1.4-7.6c0-5.4,4.3-14.2,4.3-14.2l-7,1.6l-1.6,17.5l-4.4,0.4L25.9,29.8z"/>
</g>
</svg>
