<?xml version="1.0" encoding="utf-8"?>
<!-- Generator: Adobe Illustrator 27.8.1, SVG Export Plug-In . SVG Version: 6.00 Build 0)  -->
<svg version="1.1" id="Layer_1" xmlns="http://www.w3.org/2000/svg" xmlns:xlink="http://www.w3.org/1999/xlink" x="0px" y="0px"
	 viewBox="0 0 100 100" style="enable-background:new 0 0 100 100;" xml:space="preserve">
<style type="text/css">
	.st0{fill:#C3DFF3;}
</style>
<path id="np_network_749072_000000_00000061433696434301211520000008314935628162854819_" class="st0" d="M98.6,75.4
	c-1.1-5-5.6-8.6-10.7-8.7c-2.7,0-5.3,1-7.2,2.8L63.5,58.9c-0.3-2.4-1.3-4.7-2.8-6.6L69,41.4c5.7,2.1,12.1-0.8,14.2-6.5
	c0.6-1.6,0.8-3.3,0.6-4.9c-0.6-5.5-5.3-9.7-10.9-9.8c-3.4,0-6.5,1.5-8.7,4.1c-1.8,2.3-2.7,5.1-2.4,8c0.2,1.6,0.8,3.2,1.7,4.6L55,48
	c-2.1-0.9-4.4-1.3-6.6-0.9L40,23.9c3.9-2.8,5.5-7.9,3.9-12.4C42.4,7,38.2,4,33.6,4c-1.2,0-2.5,0.2-3.6,0.6c-5.7,2-8.7,8.2-6.8,13.9
	c1.5,4.3,5.5,7.2,10.1,7.4l8.5,23.3c-3.8,2.6-6.1,6.9-6.1,11.5c0,0.5,0,1.1,0.2,1.6l-15.1,6.6l-0.5-0.5c-0.5-0.5-1-1-1.6-1.4
	c-0.3-0.3-0.6-0.5-0.9-0.6c-2.9-1.6-6.4-1.7-9.4-0.5c-2.7,1.1-4.9,3.2-6,6c-1.1,2.7-1.1,5.7,0,8.3c1.7,4.3,5.8,7.1,10.4,7.1
	c1.4,0,2.8-0.3,4.1-0.8c4-1.7,6.7-5.6,6.8-9.9v-1.1l14.8-6.6c2.6,3.6,6.8,5.8,11.3,5.8c2.8,0,5.6-0.8,7.9-2.5
	c0.3-0.2,0.5-0.3,0.8-0.5c0.3-0.2,0.5-0.5,0.8-0.6l0.3-0.3l0.5-0.5c0.4-0.3,0.7-0.7,0.9-1.1c0.3-0.4,0.6-0.8,0.8-1.3
	c0-0.2,0.2-0.2,0.2-0.3l0.2-0.2c0.1-0.4,0.4-0.8,0.6-1.1l14.8,9.3c-0.9,4.4,1,9,4.9,11.3c5.1,3.3,11.8,1.8,15.1-3.3c0,0,0,0,0,0
	C98.8,81.2,99.2,78.2,98.6,75.4L98.6,75.4z"/>
</svg>
