<?xml version="1.0" encoding="utf-8"?>
<!-- Generator: Adobe Illustrator 27.8.1, SVG Export Plug-In . SVG Version: 6.00 Build 0)  -->
<svg version="1.1" id="Layer_1" xmlns="http://www.w3.org/2000/svg" xmlns:xlink="http://www.w3.org/1999/xlink" x="0px" y="0px"
	 viewBox="0 0 100 100" style="enable-background:new 0 0 100 100;" xml:space="preserve">
<style type="text/css">
	.st0{fill:#F7E829;}
</style>
<g>
	<path class="st0" d="M68.1,37.5c0,10.1-8.2,18.2-18.2,18.2s-18.2-8.2-18.2-18.2c0-10.1,8.2-18.2,18.2-18.2S68.1,27.4,68.1,37.5"/>
	<path class="st0" d="M49.8,16.2c1.7,0,3-1.4,3-3V4c0-1.7-1.4-3-3-3s-3,1.4-3,3v9.1C46.8,14.8,48.2,16.2,49.8,16.2z"/>
	<path class="st0" d="M33.1,19.6c0.5,0.7,1.2,1.1,2,1.2c0.8,0.1,1.6-0.1,2.3-0.5c0.7-0.5,1.1-1.2,1.2-2c0.1-0.8-0.1-1.6-0.5-2.3
		l-5.4-7.4c-1-1.4-2.9-1.7-4.2-0.7c-1.4,1-1.7,2.9-0.7,4.2L33.1,19.6z"/>
	<path class="st0" d="M17.1,30l8.7,2.8v0c0.8,0.3,1.6,0.2,2.3-0.2c0.7-0.4,1.3-1,1.5-1.8c0.2-0.8,0.2-1.6-0.2-2.3
		c-0.4-0.7-1-1.3-1.8-1.5L19,24.2v0c-1.6-0.5-3.3,0.4-3.8,2C14.6,27.8,15.5,29.5,17.1,30L17.1,30z"/>
	<path class="st0" d="M18,50.8c0.3,0,0.6,0,0.9-0.2l8.7-2.8v0c0.8-0.2,1.4-0.8,1.8-1.5c0.4-0.7,0.4-1.6,0.2-2.3
		c-0.2-0.8-0.8-1.4-1.5-1.8c-0.7-0.4-1.6-0.4-2.3-0.2l-8.7,2.8v0c-1.4,0.5-2.3,1.9-2.1,3.4S16.5,50.8,18,50.8L18,50.8z"/>
	<path class="st0" d="M82.6,44.9l-8.7-2.8v0c-1.6-0.5-3.3,0.4-3.8,2c-0.5,1.6,0.4,3.3,1.9,3.8l8.7,2.8v0c1.6,0.5,3.3-0.4,3.8-2
		C85,47.1,84.2,45.4,82.6,44.9z"/>
	<path class="st0" d="M70.1,30.9c0.2,0.8,0.8,1.4,1.5,1.8c0.7,0.4,1.6,0.4,2.3,0.2l8.7-2.8v0c1.6-0.5,2.5-2.2,1.9-3.8
		c-0.5-1.6-2.2-2.5-3.8-2L72,27.1v0C70.4,27.6,69.6,29.3,70.1,30.9L70.1,30.9z"/>
	<path class="st0" d="M64.1,20.8c1,0,1.9-0.5,2.5-1.3l5.4-7.4c1-1.4,0.7-3.3-0.7-4.2C69.9,7,68,7.3,67,8.6L61.7,16
		c-0.7,0.9-0.8,2.2-0.2,3.2C61.9,20.2,63,20.8,64.1,20.8L64.1,20.8z"/>
	<path class="st0" d="M1.9,98.2h27l2.2-15.2H5.2L1.9,98.2z"/>
	<path class="st0" d="M37.3,83.1l-2.2,15.2h29.5l-2.2-15.2H37.3z"/>
	<path class="st0" d="M94.5,83.1H68.5l2.2,15.2h27L94.5,83.1z"/>
	<path class="st0" d="M89.9,61.8H65.5L67.7,77h25.5L89.9,61.8z"/>
	<path class="st0" d="M38.1,77h23.4l-2.2-15.2h-19L38.1,77z"/>
	<path class="st0" d="M6.5,77H32l2.2-15.2H9.8L6.5,77z"/>
</g>
</svg>
