<?xml version="1.0" encoding="utf-8"?>
<!-- Generator: Adobe Illustrator 27.8.1, SVG Export Plug-In . SVG Version: 6.00 Build 0)  -->
<svg version="1.1" id="Layer_1" xmlns="http://www.w3.org/2000/svg" xmlns:xlink="http://www.w3.org/1999/xlink" x="0px" y="0px"
	 viewBox="0 0 100 100" style="enable-background:new 0 0 100 100;" xml:space="preserve">
<style type="text/css">
	.st0{fill:#07652E;}
</style>
<path id="Union_1_00000000926396325868126810000003739906402311040138_" class="st0" d="M53,97.6v-9.5h34.3l3.1,3.8v1.9l-3.1,3.8H53
	z M45.8,97.6H14.1V66.8l-1.6,1.6c-0.2,0.2-0.5,0.3-0.8,0.4c-0.6,0-1-0.4-1.2-0.9c-0.2-0.5-0.1-1,0.3-1.3L33.4,45V33L32,34.2
	c-0.2,0.2-0.5,0.3-0.8,0.4c-0.6,0-1-0.4-1.2-0.9c-0.2-0.5-0.1-1,0.3-1.3l21-20.2V6.5H48c-0.3,0-0.5-0.2-0.5-0.5
	c0-0.3,0.3-0.4,0.5-0.4h3.2V2c0-0.2,0.1-0.5,0.4-0.5c0.3,0,0.5,0.2,0.5,0.5v3.7h3.2c0.2,0,0.4,0.1,0.4,0.3c0,0,0,0.1,0,0.1
	c0,0.2-0.1,0.5-0.4,0.5h-3.2v5.3h-0.4V79h-0.1c-3.3,0.4-5.8,3.2-5.8,6.6L45.8,97.6L45.8,97.6L45.8,97.6z M53,86v-9.5h31.2l3,3.8v1.9
	l-3,3.8H53z M53,74.3v-9.5h25.1l2.6,3.8v1.9l-2.6,3.8L53,74.3z M53,62.7v-9.5h21.4l2.4,3.8v1.9l-2.4,3.8L53,62.7z M53,51.1v-9.5
	h18.3l2.3,3.8v1.9l-2.3,3.8L53,51.1z M53,39.4v-9.5h14.8l2.2,3.8v1.9l-2.2,3.8L53,39.4z M53,27.8v-9.5h11.8l2,3.8V24l-2,3.8L53,27.8
	z"/>
</svg>
