<svg width="96" height="96" xmlns="http://www.w3.org/2000/svg" xmlns:xlink="http://www.w3.org/1999/xlink" xml:space="preserve" overflow="hidden"><defs><clipPath id="clip0"><rect x="0" y="0" width="96" height="96"/></clipPath></defs><g clip-path="url(#clip0)"><path d="M54.08 69 55 69C56 62 75.5 44.72 75.5 33 75.5 18.78 64 9 47.5 9 31 9 19.5 18.82 19.5 33 19.5 44.72 39 62 40 69L40.92 69 42.47 73.66C42.5142 73.7966 42.4394 73.9432 42.3028 73.9875 42.2792 73.9951 42.2547 73.9993 42.23 74L39.23 74C39.0864 74 38.97 74.1164 38.97 74.26L38.97 83.38C39.0187 84.8759 40.2708 86.0491 41.7667 86.0005 41.7711 86.0003 41.7756 86.0002 41.78 86L53.22 86C54.7093 86.0393 55.951 84.869 56 83.38L56 74.26C56 74.1164 55.8836 74 55.74 74L52.74 74C52.5965 73.9959 52.4834 73.8763 52.4875 73.7327 52.4882 73.708 52.4924 73.6835 52.5 73.66ZM66.5 33.39C66.5 39.51 60.73 50.31 56.5 58.19 55.2 60.67 54 62.86 53 64.86 52.9537 64.9443 52.8661 64.9976 52.77 65L50.24 65C50.1021 65.0073 49.9844 64.9015 49.9771 64.7636 49.9754 64.7319 49.9798 64.7001 49.99 64.67 50.2 63.95 50.41 63.22 50.64 62.47 53 54.34 57.5 39.22 57.5 33.14 57.5 21.69 54.94 13.78 50.65 11.27 50.5181 11.2133 50.4571 11.0604 50.5138 10.9285 50.5648 10.8098 50.6952 10.7466 50.82 10.78 60.32 12.41 66.5 21.07 66.5 33.39ZM38.5 58.19C34.29 50.31 28.5 39.51 28.5 33.39 28.5 21.07 34.68 12.39 44.18 10.78 44.3187 10.7428 44.4613 10.8251 44.4985 10.9638 44.5319 11.0886 44.4687 11.219 44.35 11.27 40.06 13.78 37.5 21.69 37.5 33.14 37.5 39.22 41.97 54.34 44.37 62.49L45 64.67C45.0444 64.8007 44.9744 64.9427 44.8436 64.9871 44.8135 64.9973 44.7817 65.0017 44.75 65L42.19 65C42.0939 64.9976 42.0063 64.9443 41.96 64.86 41 62.86 39.8 60.67 38.48 58.19ZM44.5 69 50.62 69C50.758 68.9962 50.873 69.1051 50.8767 69.2431 50.8776 69.2762 50.8719 69.3091 50.86 69.34L49.37 73.82C49.3379 73.9303 49.2348 74.0046 49.12 74L45.94 74C45.8252 74.0046 45.7221 73.9303 45.69 73.82L44.2 69.34C44.1502 69.2112 44.2143 69.0665 44.3431 69.0167 44.374 69.0048 44.4069 68.9991 44.44 69Z"/></g></svg>