<?xml version="1.0" encoding="utf-8"?>
<!-- Generator: Adobe Illustrator 27.7.0, SVG Export Plug-In . SVG Version: 6.00 Build 0)  -->
<svg version="1.1" id="Layer_1" xmlns="http://www.w3.org/2000/svg" xmlns:xlink="http://www.w3.org/1999/xlink" x="0px" y="0px"
	 viewBox="0 0 100 100" style="enable-background:new 0 0 100 100;" xml:space="preserve">
<style type="text/css">
	.st0{fill:#030405;}
</style>
<path class="st0" d="M39,29.1l-10,9.9l-2.6-2.6c-2.1-2.1-2.1-5.4,0-7.5l2.6-2.5c2.1-2,5.4-2,7.5,0L39,29.1z M86.6,76.6l-45-45
	l-10,10l45,45.1c1,1,2.4,1.5,3.8,1.5c1.4,0,2.7-0.6,3.7-1.5l2.5-2.5C88.7,82.1,88.7,78.7,86.6,76.6L86.6,76.6z M20.1,38h-3.5v3.6
	l-3.6,0v3.6h3.6v3.6h3.5v-3.6h3.6v-3.6h-3.6L20.1,38z M41.4,23.8H45v-3.6h3.6v-3.5H45v-3.6h-3.6v3.6h-3.5v3.5h3.6L41.4,23.8z
	 M16.6,25.6h3.5v-5.3h5.3v-3.5h-5.3v-5.3h-3.5v5.3h-5.3v3.5h5.3V25.6z"/>
</svg>
