<?xml version="1.0" encoding="utf-8"?>
<!-- Generator: Adobe Illustrator 27.8.1, SVG Export Plug-In . SVG Version: 6.00 Build 0)  -->
<svg version="1.1" id="Layer_1" xmlns="http://www.w3.org/2000/svg" xmlns:xlink="http://www.w3.org/1999/xlink" x="0px" y="0px"
	 viewBox="0 0 100 100" style="enable-background:new 0 0 100 100;" xml:space="preserve">
<style type="text/css">
	.st0{fill:#8D7CB8;}
	.st1{fill:#FFFFFF;}
</style>
<g id="Group_2_00000083060123919961892210000005414256358122837671_" transform="translate(-206.912 -581.516)">
	
		<g id="np_fundraising_3883483_000000_00000101064481554892565680000003073004838624486295_" transform="translate(206.912 585.799)">
		<path id="Path_68_00000162312331961900461750000016820049331718400692_" class="st0" d="M44.7,13.6c-21.3,0-38.6,17.3-38.6,38.6
			s17.3,38.6,38.6,38.6s38.6-17.3,38.6-38.6l0,0C83.2,30.9,66,13.7,44.7,13.6z"/>
		<path id="Path_69_00000152971251841451316540000013298970690243126713_" class="st1" d="M36.9,50.5c-0.1-0.3-0.5-1.2-1.3-2.8
			c-1.9-4.2-1.9-4.2-1.9-5.9c0-4.2,4-7.4,9.4-7.4c3.6-0.3,7,1.6,8.7,4.8c0.8,1.9,1.3,4,1.3,6.1h6.5c0.1-3.1-0.6-6.1-2-8.8
			c-3-5.1-8.6-8-14.5-7.5c-9.2,0-16,5.5-16,13c0.2,3,1,5.9,2.6,8.5H27v4.6h5c0.7,1.8,1,3.6,1.2,5.5c0,3.5-2,6.2-6.9,9.4l3.8,5.5
			c1.7-1.8,4-2.8,6.5-2.9c1.3,0,2.5,0.2,3.7,0.7c7.3,2.6,7.3,2.6,9.5,2.6c4.2-0.2,8.2-1.8,11.4-4.5l-3.8-5l-0.8,0.6
			c-1,0.7-1.6,1.1-1.6,1.2c-1.3,1.2-3.1,1.8-4.8,1.9c-1,0-2-0.2-2.9-0.5c-6.2-2.1-6.2-2.1-8-2.1c-1.6,0.1-3.2,0.4-4.8,1
			c3.8-4.3,5.1-6.8,5.1-9.7c-0.1-1.1-0.2-2.2-0.5-3.3h7.2v-4.6L36.9,50.5z"/>
	</g>
	<path id="Path_70_00000067194201595067684220000017160843381885842823_" class="st0" d="M288.3,605.9v-8.7h-8.6v-3.6h8.6v-8.6h3.7
		v8.6h8.6v3.6H292v8.7H288.3z"/>
</g>
</svg>
