<svg width="96" height="96" xmlns="http://www.w3.org/2000/svg" xmlns:xlink="http://www.w3.org/1999/xlink" xml:space="preserve" overflow="hidden"><defs><clipPath id="clip0"><rect x="0" y="0" width="96" height="96"/></clipPath></defs><g clip-path="url(#clip0)"><path d="M47.9 81C32.4 81 19.9 68.5 19.9 53 19.9 37.5 32.4 25 47.9 25 63.4 25 75.9 37.5 75.9 53L75.9 53C76 68.5 63.5 81 47.9 81ZM71.6 28.6 74.6 25.6C75.7 24.4 75.7 22.5 74.5 21.4 73.3 20.3 71.5 20.2 70.3 21.3L66.9 24.8C62.1 21.6 56.6 19.6 50.9 19.2L50.9 15 59.9 15 59.9 9 35.9 9 35.9 15 44.9 15 44.9 19.1C26.1 20.7 12.3 37.3 13.9 56 15.5 74.7 32.1 88.6 50.8 87 69.5 85.4 83.4 68.8 81.8 50.1 81.2 41.9 77.5 34.3 71.6 28.6Z"/><path d="M49.9 53 49.9 29.1C49.2 29 48.6 29 47.9 29 47.2 29 46.6 29 45.9 29.1L45.9 53 49.9 53Z"/></g></svg>