<?xml version="1.0" encoding="utf-8"?>
<!-- Generator: Adobe Illustrator 27.8.1, SVG Export Plug-In . SVG Version: 6.00 Build 0)  -->
<svg version="1.1" id="Layer_1" xmlns="http://www.w3.org/2000/svg" xmlns:xlink="http://www.w3.org/1999/xlink" x="0px" y="0px"
	 viewBox="0 0 100 100" style="enable-background:new 0 0 100 100;" xml:space="preserve">
<style type="text/css">
	.st0{fill:#9B1D19;}
</style>
<path id="np_celtic-cross_1927780_000000_00000115479698731326403790000001110210447861275827_" class="st0" d="M87.6,46.3l0-12.8
	c0-0.4-0.3-0.6-0.6-0.6h-5.5C78.7,21.5,69.9,12.7,58.6,10V4.5c0-0.4-0.3-0.6-0.6-0.6h-13c-0.4,0-0.6,0.3-0.6,0.6V10
	C33,12.7,24.2,21.5,21.5,32.8h-5.6c-0.4,0-0.6,0.3-0.6,0.6l0,12.9c0,0.4,0.3,0.6,0.6,0.6h5.5C24.2,58.3,33,67.2,44.3,69.9v25.9
	c0,0.4,0.3,0.6,0.6,0.6h13c0.4,0,0.6-0.3,0.6-0.6V69.9C69.9,67.2,78.7,58.3,81.4,47H87c0.4,0,0.6-0.3,0.6-0.6
	C87.6,46.4,87.6,46.3,87.6,46.3L87.6,46.3z M58.6,21.5v-0.6c5.5,2.1,9.8,6.4,11.9,11.9h-0.2c-1.3,0-2.5,0.6-3.2,1.6
	c-1.3,1.7-3.4,2.7-5.5,2.7c-1.9,0-3.8-0.8-5.1-2.2c-1.4-1.5-2.1-3.5-1.9-5.5c0.1-2,1.1-3.8,2.7-5C58.1,23.8,58.6,22.7,58.6,21.5
	L58.6,21.5z M45.9,24.6c3.1,2.4,3.6,6.8,1.2,9.9c-1.3,1.7-3.4,2.7-5.5,2.7c-2.2,0-4.3-1-5.7-2.8c-0.8-1-1.9-1.5-3.2-1.5h-0.3
	c1-2.6,2.5-5.1,4.5-7.1c2.1-2.1,4.6-3.7,7.4-4.8v0.4C44.3,22.6,44.9,23.8,45.9,24.6L45.9,24.6z M44.3,58.3v0.7
	c-2.6-1-4.9-2.5-6.9-4.3c-2.2-2.1-3.9-4.7-5-7.6h0.2c1.3,0,2.5-0.6,3.2-1.6c1.4-1.7,3.5-2.7,5.7-2.7c2-0.1,3.9,0.8,5.1,2.3
	c2.6,2.9,2.3,7.3-0.5,9.9c-0.1,0.1-0.2,0.2-0.4,0.3C44.9,55.9,44.3,57.1,44.3,58.3L44.3,58.3z M57.1,55.2c-1.6-1.2-2.6-3.1-2.7-5.1
	c-0.1-2,0.6-4,2.1-5.5c1.4-1.3,3.2-2,5-2c2.2,0,4.2,1,5.5,2.8c0.8,1,1.9,1.6,3.2,1.6h0.2c-2,5.5-6.3,9.9-11.9,11.9v-0.6
	C58.6,57.1,58.1,56,57.1,55.2L57.1,55.2z"/>
</svg>
