<svg width="96" height="96" xmlns="http://www.w3.org/2000/svg" xmlns:xlink="http://www.w3.org/1999/xlink" xml:space="preserve" overflow="hidden"><defs><clipPath id="clip0"><rect x="0" y="0" width="96" height="96"/></clipPath></defs><g clip-path="url(#clip0)"><path d="M47.979 10C27.0038 10 10 27.0038 10 47.979 10 68.9542 27.0038 85.958 47.979 85.958 68.9542 85.958 85.958 68.9542 85.958 47.979 85.958 47.9777 85.958 47.9763 85.958 47.975 85.9657 27.0097 68.9763 10.0077 48.011 10 48.0003 9.99999 47.9897 9.99999 47.979 10ZM59.415 57.344C58.9071 58.7089 58.122 59.9537 57.109 61 56.075 62.0433 54.8293 62.8528 53.456 63.374 51.9079 63.9584 50.2635 64.2458 48.609 64.221 46.6116 64.2836 44.6322 63.826 42.865 62.893 41.3424 62.0522 40.0403 60.8632 39.065 59.423 38.0831 57.9514 37.3745 56.3149 36.973 54.592 36.5442 52.8199 36.3273 51.0032 36.327 49.18 36.3279 47.6324 36.4664 46.088 36.741 44.565 37.012 43.0343 37.4293 41.5331 37.987 40.082 38.5311 38.6604 39.2382 37.3067 40.094 36.048 40.9318 34.8116 41.9443 33.7031 43.1 32.757 44.2716 31.8046 45.5964 31.0579 47.018 30.549 48.5857 29.999 50.2377 29.7282 51.899 29.749 54.0502 29.6692 56.1948 30.0321 58.2 30.815L58.2 35.4C56.2736 34.4411 54.1518 33.9401 52 33.936 50.3123 33.8815 48.6412 34.2836 47.163 35.1 45.8779 35.8471 44.7827 36.881 43.963 38.121 43.1178 39.42 42.5107 40.8591 42.17 42.371 41.7954 43.9486 41.6061 45.5645 41.606 47.186L41.706 47.186C42.0998 46.5051 42.5672 45.8696 43.1 45.291 43.6353 44.7117 44.2433 44.2041 44.909 43.781 45.5955 43.3437 46.3387 43.0029 47.118 42.768 47.9471 42.52 48.8086 42.397 49.674 42.403 51.1441 42.3842 52.6041 42.6491 53.974 43.183 55.22 43.6715 56.3551 44.4053 57.312 45.341 58.2488 46.2712 58.9835 47.3847 59.47 48.612 59.985 49.9128 60.2431 51.301 60.23 52.7 60.2463 54.285 59.97 55.8593 59.415 57.344Z"/><path d="M53.091 48.2C52.5018 47.661 51.8057 47.2522 51.048 47 50.2938 46.7471 49.5035 46.6181 48.708 46.618 47.8566 46.6203 47.0128 46.7779 46.218 47.083 45.407 47.3876 44.6584 47.8376 44.009 48.411 43.3481 48.9982 42.8069 49.7075 42.415 50.5 41.9956 51.3588 41.7849 52.3044 41.8 53.26 41.7946 54.1374 41.946 55.0088 42.247 55.833 42.5454 56.6374 43.0059 57.3719 43.6 57.991 44.2186 58.6361 44.9648 59.1452 45.791 59.486 46.7405 59.867 47.7571 60.053 48.78 60.033 49.7381 60.0551 50.6878 59.8494 51.551 59.433 52.3075 59.0578 52.9753 58.5256 53.51 57.872 54.0333 57.2255 54.4333 56.4882 54.69 55.697 54.9548 54.8994 55.0899 54.0644 55.09 53.224 55.1152 52.2061 54.9286 51.194 54.542 50.252 54.2089 49.4731 53.7143 48.7737 53.091 48.2Z"/></g></svg>