<?xml version="1.0" encoding="utf-8"?>
<!-- Generator: Adobe Illustrator 27.8.1, SVG Export Plug-In . SVG Version: 6.00 Build 0)  -->
<svg version="1.1" id="Layer_1" xmlns="http://www.w3.org/2000/svg" xmlns:xlink="http://www.w3.org/1999/xlink" x="0px" y="0px"
	 viewBox="0 0 100 100" style="enable-background:new 0 0 100 100;" xml:space="preserve">
<style type="text/css">
	.st0{fill:#184A25;}
</style>
<g>
	<path class="st0" d="M33.7,8.3c-0.1,0.2-0.1,0.4,0,0.5c2,3.3,2.7,7.3,1.9,11c-1.1,4.3-4.7,16.9-4.9,17.4l0,0
		c-1.2,4.3-0.9,8.9,0.9,13c1.8,4.1,5,7.5,9,9.5l6.2,3.1l0,0c4,2,8.6,2.6,13,1.6c4.4-1,8.3-3.4,11.1-6.9c0.3-0.4,8.3-10.7,11.2-14.2
		l0,0c2.6-2.9,6.2-4.7,10-5c0.2,0,0.4-0.2,0.4-0.3c0.1-0.2,0-0.4-0.1-0.5c-8.4-7.1-17.6-13.1-27.4-18c-9.7-5.1-20-8.9-30.7-11.5
		C34,8.1,33.8,8.2,33.7,8.3L33.7,8.3z"/>
	<path class="st0" d="M38.5,5.7c9.7,2.7,19,6.3,27.9,10.9c9,4.5,17.5,9.9,25.3,16.1l0,0l0.7-0.4c0.5-0.3,0.8-0.9,0.7-1.5
		c-0.1-0.6-0.5-1.1-1.1-1.3c-0.1,0-0.1,0-0.2,0l0,0c-2.2-0.4-3.8-2.3-4-4.5l-0.2-2c-0.1-0.8-0.5-1.6-1.1-2.1
		c-0.7-0.5-1.5-0.7-2.3-0.5c-1.4,0.3-2.8,0.1-4-0.6c-1.7-0.9-2.9-2.4-3.4-4.3c0-0.1,0-0.1,0-0.2c-0.2-0.8-0.7-1.4-1.4-1.8
		c-0.7-0.4-1.5-0.5-2.3-0.2c-3.3,1-6.9-0.7-8-4c-0.3-0.8-0.8-1.4-1.6-1.8c-0.8-0.3-1.6-0.3-2.4,0c-3.2,1.5-6.9,0.1-8.4-3.1
		c-0.3-0.6-0.7-1-1.3-1.3c-0.9-0.5-2-0.4-2.8,0.1l-1.7,1.1l0,0c-1.9,1.2-4.3,0.9-6-0.6c-0.5-0.5-1.3-0.5-1.9-0.1
		c-0.5,0.3-0.7,0.8-0.7,1.4L38.5,5.7z"/>
	<path class="st0" d="M43,95.1c4-5.8,9.2-10.7,15.4-14.2c-7-0.9-18.6-0.2-25,12.4l-1.5,3l2.2,1.1C37.2,98.9,41,97.9,43,95.1L43,95.1
		z"/>
	<path class="st0" d="M40.6,63.7l3.1,1.6L27.2,97.8l-3.1-1.6L40.6,63.7z"/>
	<path class="st0" d="M19.3,61.1c0.8,7,0,14.1-2.4,20.8c-1.1,3.3,0.4,6.9,3.5,8.5l2.2,1.1l1.5-3C30.5,76,24.2,66.2,19.3,61.1
		L19.3,61.1z"/>
</g>
</svg>
