<?xml version="1.0" encoding="utf-8"?>
<!-- Generator: Adobe Illustrator 27.8.1, SVG Export Plug-In . SVG Version: 6.00 Build 0)  -->
<svg version="1.1" id="Layer_1" xmlns="http://www.w3.org/2000/svg" xmlns:xlink="http://www.w3.org/1999/xlink" x="0px" y="0px"
	 viewBox="0 0 100 100" style="enable-background:new 0 0 100 100;" xml:space="preserve">
<style type="text/css">
	.st0{fill:#C0920A;}
</style>
<path id="np_community-education_2279982_000000_00000092442669469339371470000000433898924362847878_" class="st0" d="M28.1,15.7
	c4.1-2.6,8.5-4.5,13.3-5.5c-0.3-0.9-0.5-1.9-0.5-2.9c0-0.4,0-0.7,0.1-1.1c-5.6,1.1-10.9,3.4-15.6,6.5C26.5,13.5,27.4,14.5,28.1,15.7
	L28.1,15.7z M19.8,25.9c3,0,5.5-2.5,5.5-5.5c0-3-2.5-5.5-5.5-5.5s-5.5,2.5-5.5,5.5c0,1.5,0.6,3,1.8,4C17.1,25.4,18.5,25.9,19.8,25.9
	z M50.4,12.7c2.8,0,5.2-2.1,5.5-4.9c0-0.2,0-0.4,0-0.6l0,0c0-3-2.5-5.5-5.5-5.5c-3,0-5.5,2.5-5.5,5.5c0,0.2,0,0.4,0,0.6
	C45.2,10.6,47.6,12.7,50.4,12.7L50.4,12.7z M72.3,15.7c0.7-1.2,1.6-2.2,2.6-3.1c-4.6-3.1-9.7-5.2-15.1-6.4c0,0.3,0,0.7,0,1
	c0,1-0.2,2-0.5,3C64,11.3,68.3,13.2,72.3,15.7z M89.6,39.6L89.6,39.6c1-0.4,2.1-0.6,3.3-0.6c0.2,0,0.5,0,0.7,0l0,0
	c-1.1-4.6-3-8.9-5.5-12.9c-0.8,1.1-1.9,1.9-3.1,2.6C87,32.1,88.6,35.7,89.6,39.6L89.6,39.6z M80.7,25.7L80.7,25.7
	c1.3,0,2.6-0.5,3.5-1.3c2.3-2,2.6-5.4,0.6-7.7c-2-2.3-5.4-2.6-7.7-0.6c-2.3,2-2.6,5.4-0.6,7.7C77.5,25,79,25.7,80.7,25.7z M7.8,53.9
	c3-0.3,5.3-2.9,5-6c-0.2-2.6-2.3-4.7-4.9-5c-0.2,0-0.4,0-0.6,0l0,0c-3,0-5.5,2.5-5.5,5.5c0,3,2.5,5.5,5.5,5.5
	C7.5,54,7.7,54,7.8,53.9L7.8,53.9z M10.7,39.6L10.7,39.6c1-3.8,2.6-7.5,4.6-10.9c-1.2-0.6-2.3-1.5-3.1-2.6c-2.5,4-4.4,8.3-5.5,12.9
	c0.2,0,0.4,0,0.6,0C8.5,39,9.6,39.2,10.7,39.6L10.7,39.6z M72.3,84.2c-3.9,2.6-8.3,4.4-12.9,5.5c0.3,0.9,0.5,1.9,0.5,2.9
	c0,0.4,0,0.7-0.1,1.1c5.4-1.2,10.5-3.4,15.1-6.4C73.9,86.4,73,85.4,72.3,84.2z M84.2,75.5L84.2,75.5c-2.3-2-5.8-1.7-7.7,0.6
	c-2,2.3-1.7,5.8,0.6,7.7c2.3,2,5.8,1.7,7.7-0.6c0.9-1,1.3-2.3,1.3-3.6C86.1,78.1,85.4,76.5,84.2,75.5z M10.1,57.6L10.1,57.6
	C9.2,57.8,8.3,58,7.3,58c-0.4,0-0.8,0-1.2-0.1c1,5.8,3.2,11.4,6.4,16.3c0.8-1.1,1.9-2,3.1-2.6C12.9,67.4,11.1,62.6,10.1,57.6z
	 M92.8,43L92.8,43c-0.2,0-0.5,0-0.7,0c-3,0.4-5.2,3.1-4.8,6.1c0.3,2.6,2.5,4.7,5.1,4.8c0.1,0,0.2,0,0.4,0c3,0,5.5-2.5,5.5-5.5
	C98.3,45.5,95.9,43,92.8,43L92.8,43z M90.2,57.6c-0.9,4.8-2.7,9.4-5.2,13.6c1.2,0.6,2.3,1.5,3.1,2.6c3.1-4.9,5.1-10.3,6.1-15.9
	c-0.5,0.1-0.9,0.1-1.4,0.1C91.9,58,91.1,57.9,90.2,57.6L90.2,57.6z M50.4,87.1c-3,0-5.5,2.5-5.5,5.5c0,0.1,0,0.1,0,0.2
	c0.1,3,2.6,5.4,5.6,5.4c3-0.1,5.4-2.6,5.4-5.6l0,0c0-0.2,0-0.4,0-0.6l0,0C55.6,89.3,53.2,87.1,50.4,87.1z M20,74.6
	c-3,0-5.5,2.5-5.4,5.5c0,3,2.5,5.5,5.5,5.4c3,0,5.5-2.5,5.4-5.5c0-1.4-0.6-2.8-1.6-3.8C22.8,75.2,21.4,74.6,20,74.6z M28.4,84.5
	L28.4,84.5c-0.6,1.2-1.5,2.3-2.6,3.1c4.6,3,9.8,5.1,15.1,6.2c-0.1-0.4-0.1-0.8-0.1-1.2c0-1,0.1-1.9,0.4-2.8
	C36.8,88.8,32.4,87,28.4,84.5L28.4,84.5z M27.4,30.8V66c3.3,0.2,6.6,0.7,9.9,1.5c3.8,0.9,7.5,2.1,11,3.7V36.5
	c-3.9-1.9-7.9-3.4-12.2-4.3C33.2,31.4,30.3,31,27.4,30.8L27.4,30.8z M52.2,36.4c0,9.1,0,26.8,0,34.7c3.5-1.5,7.1-2.7,10.8-3.6
	c3.2-0.8,6.5-1.3,9.9-1.5V30.8C65.7,31.3,58.7,33.2,52.2,36.4L52.2,36.4z"/>
</svg>
