<?xml version="1.0" encoding="utf-8"?>
<!-- Generator: Adobe Illustrator 27.8.1, SVG Export Plug-In . SVG Version: 6.00 Build 0)  -->
<svg version="1.1" id="Layer_1" xmlns="http://www.w3.org/2000/svg" xmlns:xlink="http://www.w3.org/1999/xlink" x="0px" y="0px"
	 viewBox="0 0 100 100" style="enable-background:new 0 0 100 100;" xml:space="preserve">
<style type="text/css">
	.st0{fill-rule:evenodd;clip-rule:evenodd;fill:#4470B5;}
</style>
<path id="np_circular-economy_4651590_000000_00000158007030800370436840000016219101511813937545_" class="st0" d="M12.1,78
	C-0.3,61.3-0.4,38.6,11.8,21.8l-4.6-4.6c-0.4-0.4-0.4-1,0-1.4c0.2-0.2,0.4-0.3,0.7-0.3h20.5c1.1,0,1.9,0.9,1.9,1.9V38
	c0,0.5-0.4,1-1,1c-0.3,0-0.5-0.1-0.7-0.3l-5.5-5.5c-6,9.9-6.2,22.3-0.4,32.3h-5c-3.2,0-5.8,2.6-5.8,5.8L12.1,78z M34.2,22.5
	c10-5.8,22.4-5.7,32.3,0.4L61,28.4c-0.4,0.4-0.4,1,0,1.4c0.2,0.2,0.4,0.3,0.7,0.3h20.5c1.1,0,1.9-0.9,1.9-1.9v0V7.5c0-0.5-0.4-1-1-1
	c-0.3,0-0.5,0.1-0.7,0.3L78,11.5C61.2-0.8,38.4-0.6,21.8,11.7h6.7c3.2,0,5.8,2.6,5.8,5.8L34.2,22.5z M88,21.4
	c6.1,8.2,9.4,18.1,9.4,28.3c0,10-3.1,19.8-8.9,28.1l4.4,4.4c0.4,0.4,0.4,1,0,1.4c-0.2,0.2-0.4,0.3-0.7,0.3H71.7
	c-1.1,0-1.9-0.9-1.9-1.9v0V61.3c0-0.5,0.4-1,1-1c0.3,0,0.5,0.1,0.7,0.3l5.5,5.5c6-9.9,6.2-22.3,0.4-32.3h5c3.2,0,5.8-2.6,5.8-5.8
	L88,21.4z M78.3,87.6h-6.7c-3.2,0-5.8-2.6-5.8-5.8v-5c-10,5.8-22.4,5.7-32.3-0.4l5.5-5.5c0.4-0.4,0.4-1,0-1.4
	c-0.2-0.2-0.4-0.3-0.7-0.3H17.9c-1.1,0-1.9,0.9-1.9,1.9l0,0v20.5c0,0.5,0.4,1,1,1c0.3,0,0.5-0.1,0.7-0.3l4.6-4.6
	C39,100.1,61.7,100,78.3,87.6L78.3,87.6z"/>
</svg>
